<?xml version="1.0" standalone="no"?>
<!DOCTYPE svg PUBLIC "-//W3C//DTD SVG 20010904//EN"
 "http://www.w3.org/TR/2001/REC-SVG-20010904/DTD/svg10.dtd">
<svg version="1.0" xmlns="http://www.w3.org/2000/svg"
 width="256.000000pt" height="256.000000pt" viewBox="0 0 256.000000 256.000000"
 preserveAspectRatio="xMidYMid meet">

<g transform="translate(0.000000,256.000000) scale(0.100000,-0.100000)"
fill="#000000" stroke="none">
<path d="M855 2437 c-206 -68 -236 -230 -38 -214 l62 5 21 -55 c11 -29 20 -58
20 -63 0 -5 -24 -22 -52 -36 -108 -54 -248 -174 -323 -276 l-20 -26 -84 37
-85 36 3 63 c3 75 -15 112 -56 112 -83 0 -172 -126 -181 -256 -4 -64 -2 -74
18 -94 34 -34 75 -21 132 40 26 27 51 50 56 50 9 0 143 -57 149 -64 2 -2 -8
-28 -22 -59 -97 -221 -95 -494 8 -727 5 -11 -7 -21 -48 -39 l-55 -23 -35 31
c-47 41 -79 41 -95 0 -17 -41 1 -124 40 -177 64 -89 139 -52 115 57 -6 28 -3
31 44 55 28 15 54 26 59 26 5 0 25 -24 44 -52 101 -152 284 -293 449 -347 l37
-12 -12 -47 -12 -47 -55 -8 c-103 -14 -135 -67 -80 -130 49 -55 120 -81 223
-82 78 0 89 2 112 24 47 44 26 94 -61 143 -29 16 -53 32 -53 35 0 2 5 24 11
49 10 39 15 45 33 40 151 -35 372 -2 540 80 39 19 70 34 71 34 0 0 9 -15 19
-34 18 -34 18 -35 -3 -69 -25 -41 -27 -82 -5 -91 78 -30 224 62 224 142 0 35
-39 48 -96 32 -45 -13 -47 -12 -65 11 -10 13 -19 29 -19 34 0 6 32 38 70 73
75 68 140 147 185 227 16 28 29 51 30 52 1 2 31 -9 68 -23 l67 -26 0 -56 c0
-76 16 -106 58 -110 77 -8 162 115 170 245 4 56 1 78 -12 98 -33 50 -111 24
-157 -53 -12 -20 -23 -38 -24 -40 -1 -1 -31 8 -66 21 -39 15 -63 30 -62 38 1
8 11 59 23 114 39 179 13 401 -65 555 -14 27 -25 54 -25 59 0 5 14 18 32 29
l32 20 40 -34 c70 -60 126 -59 146 2 23 67 -26 190 -104 262 -71 65 -115 67
-145 7 -13 -26 -7 -94 14 -146 4 -12 -5 -23 -31 -38 -43 -25 -31 -32 -98 53
-45 57 -171 153 -258 197 -78 39 -80 41 -74 71 3 17 6 34 6 39 0 5 18 9 39 9
23 0 48 8 62 19 20 16 22 23 14 47 -24 67 -205 114 -249 65 -29 -32 -8 -64 73
-118 2 -1 1 -17 -3 -36 l-6 -33 -88 18 c-132 27 -288 22 -431 -14 -8 -2 -22
20 -38 61 -23 61 -23 65 -6 75 73 40 104 114 62 152 -26 23 -127 29 -184 11z
m92 -524 c104 -49 116 -207 21 -274 -48 -35 -133 -38 -177 -7 -58 39 -76 72
-76 138 0 66 18 99 75 138 40 27 107 29 157 5z m806 -43 c40 -45 38 -107 -4
-149 -84 -84 -224 10 -178 120 30 74 128 89 182 29z m-356 -304 c65 -71 34
-181 -58 -206 -104 -28 -193 84 -144 181 41 78 142 90 202 25z m524 -134 c43
-22 59 -38 82 -82 25 -47 28 -63 23 -109 -6 -67 -44 -126 -101 -159 -57 -32
-155 -28 -212 10 -78 51 -108 170 -65 255 55 106 166 141 273 85z m-1140 -45
c40 -27 66 -89 55 -132 -4 -15 -22 -43 -41 -62 -29 -29 -40 -33 -83 -33 -60 0
-104 31 -122 84 -37 113 92 210 191 143z m379 -510 c48 -31 72 -78 72 -137 0
-160 -198 -218 -296 -86 -29 39 -29 133 0 173 55 74 155 97 224 50z m500 -22
c39 -20 60 -53 60 -93 0 -68 -42 -111 -109 -112 -36 0 -49 6 -77 34 -24 24
-34 43 -34 65 0 90 84 145 160 106z"/>
</g>
</svg>
